<svg width="96" height="96" viewBox="0 0 96 96" fill="none" xmlns="http://www.w3.org/2000/svg">
<path d="M48.3525 45.0487C45.78 41.6625 46.1287 36.9487 49.1325 34.5187L76.665 12.27C78.7875 10.5562 81.9787 11.1037 83.7975 13.5L84.4538 14.3625C87.42 18.2662 87.0187 23.7 83.5575 26.4975L58.4512 46.7887C55.4475 49.215 50.9287 48.435 48.3562 45.0487H48.3525Z" fill="#026CAD"/>
<path d="M80.6025 11.0212H80.4863C77.0813 11.0212 74.325 13.7812 74.325 17.1825V58.5075C73.74 58.44 73.1513 58.3912 72.5475 58.3912C64.695 58.3912 58.3275 64.3425 58.3275 71.6812C58.3275 79.02 64.695 84.9712 72.5475 84.9712C80.4 84.9712 86.7675 79.02 86.7675 71.6812V17.1862C86.7675 13.7812 84.0075 11.025 80.6063 11.025L80.6025 11.0212Z" fill="#22A3FF"/>
<path d="M59.4338 34.56L33.4575 13.5713C33.0413 13.2075 32.6513 12.9075 32.2725 12.6338C31.2075 11.64 29.7863 11.0213 28.215 11.0213H27.63C24.3825 11.0213 21.7463 13.6538 21.7463 16.905V58.5075C21.165 58.44 20.58 58.395 19.98 58.395C12.1275 58.395 5.76001 64.3463 5.76001 71.685C5.76001 79.0238 12.1275 84.975 19.98 84.975C27.8325 84.975 34.2 79.0238 34.2 71.685C34.2 71.6138 34.1888 71.5425 34.1888 71.4675V33.96L50.1113 46.8263C53.1188 49.2563 57.645 48.4838 60.2175 45.0938C62.79 41.7075 62.4375 36.99 59.4263 34.5563L59.4338 34.56Z" fill="#22A3FF"/>
</svg>
