<svg width="28" height="28" viewBox="0 0 28 28" fill="none" xmlns="http://www.w3.org/2000/svg">
<path d="M14 24.5C15.3791 24.5017 16.745 24.2309 18.0191 23.7031C19.2933 23.1753 20.4506 22.401 21.4245 21.4245C22.401 20.4506 23.1753 19.2933 23.7031 18.0191C24.2309 16.745 24.5017 15.3791 24.5 14C24.5017 12.6209 24.2309 11.255 23.7031 9.98086C23.1753 8.70672 22.401 7.54942 21.4245 6.57546C20.4506 5.59904 19.2933 4.8247 18.0191 4.29691C16.745 3.76913 15.3791 3.49831 14 3.50001C12.6209 3.49831 11.255 3.76913 9.98085 4.29691C8.70671 4.8247 7.54941 5.59904 6.57545 6.57546C5.59903 7.54942 4.82469 8.70672 4.29691 9.98086C3.76912 11.255 3.4983 12.6209 3.5 14C3.4983 15.3791 3.76912 16.745 4.29691 18.0191C4.82469 19.2933 5.59903 20.4506 6.57545 21.4245C7.54941 22.401 8.70671 23.1753 9.98085 23.7031C11.255 24.2309 12.6209 24.5017 14 24.5Z" stroke="#22A3FF" stroke-width="1.75" stroke-linejoin="round"/>
<path d="M9.33332 14L12.4444 17.5L18.6667 10.5" stroke="#22A3FF" stroke-width="1.75" stroke-linecap="round" stroke-linejoin="round"/>
</svg>
