<svg width="24" height="24" viewBox="0 0 24 24" fill="none" xmlns="http://www.w3.org/2000/svg">
<path d="M3 5L19 21M11.148 9.123C11.6677 8.96893 12.2195 8.95856 12.7446 9.09299C13.2698 9.22743 13.7487 9.50164 14.1305 9.88649C14.5122 10.2713 14.7826 10.7524 14.9128 11.2786C15.043 11.8049 15.0282 12.3565 14.87 12.875M8.41 6.878C12.674 4.762 17.267 6.47 21 12C19.973 13.521 18.881 14.753 17.749 15.696M15.24 17.286C11.076 19.142 6.631 17.38 3 12C4.01 10.504 5.083 9.287 6.196 8.35" stroke="#767676" stroke-width="1.5" stroke-linecap="round" stroke-linejoin="round"/>
</svg>
