<svg width="28" height="28" viewBox="0 0 28 28" fill="none" xmlns="http://www.w3.org/2000/svg">
<path d="M21.1825 8.64844H12.0514C11.7635 8.64918 11.4784 8.7067 11.2127 8.8177C10.947 8.9287 10.7057 9.091 10.5028 9.29533C10.2998 9.49965 10.1391 9.74198 10.0299 10.0085C9.92071 10.2749 9.86512 10.5603 9.86631 10.8483V22.2996C9.86631 23.5142 10.8448 24.4995 12.0514 24.4995H21.1825C21.4705 24.4987 21.7555 24.4412 22.0212 24.3302C22.287 24.2192 22.5282 24.0569 22.7312 23.8526C22.9341 23.6483 23.0948 23.4059 23.204 23.1394C23.3132 22.873 23.3688 22.5876 23.3676 22.2996V10.8483C23.3676 9.63374 22.3891 8.64844 21.1825 8.64844Z" stroke="#767676" stroke-width="1.75" stroke-linecap="round" stroke-linejoin="round"/>
<path d="M18.1342 8.64897V5.69989C18.1342 5.11643 17.9038 4.55681 17.494 4.14476C17.2917 3.94076 17.0511 3.77878 16.7859 3.66813C16.5208 3.55748 16.2364 3.50034 15.9491 3.5H6.81805C6.23914 3.5 5.68292 3.73157 5.27427 4.14476C4.86417 4.55854 4.63372 5.11731 4.63292 5.69989V17.1511C4.63292 17.7346 4.86335 18.2942 5.27314 18.7063C5.68292 19.1183 6.238 19.351 6.81805 19.351H9.86589" stroke="#767676" stroke-width="1.75" stroke-linecap="round" stroke-linejoin="round"/>
</svg>
