<svg width="28" height="28" viewBox="0 0 28 28" fill="none" xmlns="http://www.w3.org/2000/svg">
<path d="M5.60004 24.5H22.4" stroke="#767676" stroke-width="1.75" stroke-linecap="round"/>
<path d="M20.6538 9.91684L21.4329 9.13984C21.7397 8.8331 21.9831 8.46895 22.1492 8.06816C22.3152 7.66737 22.4007 7.23779 22.4008 6.80396C22.4008 6.37012 22.3154 5.94053 22.1494 5.5397C21.9835 5.13887 21.7402 4.77466 21.4334 4.46786C21.1267 4.16106 20.7625 3.91768 20.3618 3.75161C19.961 3.58555 19.5314 3.50005 19.0976 3.5C18.6637 3.49995 18.2341 3.58535 17.8333 3.75133C17.4325 3.9173 17.0683 4.1606 16.7615 4.46734L15.9824 5.24644C15.9824 5.24644 16.08 6.90124 17.5395 8.36074C18.999 9.82024 20.6538 9.91789 20.6538 9.91789L13.496 17.0757C13.0109 17.5608 12.7694 17.8023 12.5016 18.0113C12.1859 18.2577 11.8468 18.4673 11.4842 18.6402C11.1786 18.7862 10.8531 18.8943 10.2032 19.1106L7.44586 20.0304M15.9824 5.24539L8.82451 12.4043C8.33941 12.8894 8.09686 13.1309 7.88896 13.3986C7.64268 13.7137 7.43177 14.0549 7.26001 14.4161C7.11406 14.7216 7.00591 15.0471 6.78856 15.6971L5.86981 18.4544M5.86981 18.4544L5.64616 19.1274C5.59373 19.2844 5.58607 19.4528 5.62403 19.6138C5.66199 19.7749 5.74408 19.9222 5.86107 20.0392C5.97807 20.1562 6.12535 20.2383 6.2864 20.2762C6.44744 20.3142 6.61588 20.3065 6.77281 20.2541L7.44586 20.0304M5.86981 18.4544L7.44586 20.0304" stroke="#767676" stroke-width="1.75"/>
</svg>
