<svg width="20" height="20" viewBox="0 0 20 20" fill="none" xmlns="http://www.w3.org/2000/svg">
<path d="M10.0003 18.3333C14.6026 18.3333 18.3337 14.6023 18.3337 10C18.3337 5.39773 14.6026 1.66667 10.0003 1.66667M10.0003 18.3333C5.39805 18.3333 1.66699 14.6023 1.66699 10C1.66699 5.39773 5.39805 1.66667 10.0003 1.66667M10.0003 18.3333C12.2731 18.3333 13.0306 14.5455 13.0306 10C13.0306 5.45454 12.2731 1.66667 10.0003 1.66667M10.0003 18.3333C7.7276 18.3333 6.97002 14.5455 6.97002 10C6.97002 5.45454 7.7276 1.66667 10.0003 1.66667M2.42457 13.0303H17.5761M2.42457 6.9697H17.5761" stroke="#767676" stroke-width="1.25"/>
</svg>
