<svg width="300" height="30" viewBox="0 0 300 30" fill="none" xmlns="http://www.w3.org/2000/svg">
<path d="M15.1101 14.0778C14.3061 13.0196 14.4151 11.5465 15.3538 10.7871L23.9577 3.83441C24.621 3.29887 25.6183 3.46996 26.1866 4.21879L26.3917 4.48832C27.3186 5.70824 27.1933 7.40629 26.1116 8.28051L18.2659 14.6215C17.3272 15.3797 15.9151 15.136 15.1112 14.0778H15.1101Z" fill="#026CAD"/>
<path d="M25.188 3.44409H25.1517C24.0876 3.44409 23.2263 4.30659 23.2263 5.36948V18.2835C23.0435 18.2625 22.8595 18.2472 22.6708 18.2472C20.2169 18.2472 18.2271 20.107 18.2271 22.4003C18.2271 24.6937 20.2169 26.5535 22.6708 26.5535C25.1247 26.5535 27.1146 24.6937 27.1146 22.4003V5.37065C27.1146 4.30659 26.2521 3.44526 25.1892 3.44526L25.188 3.44409Z" fill="#22A3FF"/>
<path d="M18.5729 10.8001L10.4553 4.24109C10.3252 4.12742 10.2033 4.03367 10.085 3.94812C9.75215 3.63757 9.30801 3.44421 8.81699 3.44421H8.63418C7.61934 3.44421 6.79551 4.26687 6.79551 5.28289V18.2837C6.61387 18.2626 6.43106 18.2485 6.24356 18.2485C3.78965 18.2485 1.7998 20.1083 1.7998 22.4016C1.7998 24.695 3.78965 26.5548 6.24356 26.5548C8.69746 26.5548 10.6873 24.695 10.6873 22.4016C10.6873 22.3794 10.6838 22.3571 10.6838 22.3337V10.6126L15.6596 14.6333C16.5994 15.3927 18.0139 15.1512 18.8178 14.0919C19.6217 13.0337 19.5115 11.5594 18.5705 10.7989L18.5729 10.8001Z" fill="#22A3FF"/>
<path d="M37.5 6.49217H42.5812L46.8891 15.4922L51.1969 6.49217H56.2828V23.4937H50.9578V17.1937L47.8219 23.4937H45.975L42.8391 17.1937V23.4937H37.5141V6.49217H37.5Z" fill="#22A3FF"/>
<path d="M61.7528 22.814C60.52 22.1156 59.6106 21.1687 59.0294 19.9687C58.4435 18.7687 58.1528 17.3906 58.1528 15.8344V6.49217H63.9185V15.6609C63.9185 16.6172 64.1106 17.339 64.4997 17.8265C64.8888 18.314 65.5075 18.5578 66.3466 18.5578C67.1856 18.5578 67.7997 18.314 68.1841 17.8265C68.5638 17.339 68.756 16.6172 68.756 15.6609V6.49217H74.545V15.8344C74.545 17.3906 74.2544 18.7687 73.6685 19.9687C73.0872 21.1687 72.1778 22.1203 70.945 22.814C69.7122 23.5125 68.1794 23.8594 66.3466 23.8594C64.5138 23.8594 62.981 23.5125 61.7481 22.814H61.7528Z" fill="#22A3FF"/>
<path d="M78.7078 23.5217C77.5734 23.2967 76.65 22.9874 75.9375 22.5983V17.5874C76.8469 18.1077 77.8078 18.4967 78.8203 18.7546C79.8328 19.0124 80.7703 19.1436 81.6281 19.1436C82.1156 19.1436 82.4625 19.0967 82.6734 18.9983C82.8844 18.8999 82.9875 18.7452 82.9875 18.5342C82.9875 18.2436 82.8234 17.9952 82.5 17.7936C82.1766 17.5921 81.4875 17.2546 80.4328 16.7858C78.8766 16.1061 77.7469 15.3467 77.0391 14.5124C76.3359 13.678 75.9797 12.6608 75.9797 11.4608C75.9797 10.4249 76.2656 9.50143 76.8422 8.69987C77.4187 7.8983 78.2297 7.27018 79.275 6.81549C80.3203 6.3608 81.5156 6.1358 82.8609 6.1358C83.9625 6.1358 84.9469 6.22487 85.8047 6.40299C86.6625 6.58112 87.4828 6.85768 88.2609 7.22799V12.0702C86.8031 11.2592 85.3594 10.8514 83.9297 10.8514C82.7766 10.8514 82.2047 11.1046 82.2047 11.6061C82.2047 11.8499 82.3406 12.0514 82.6078 12.2155C82.875 12.3796 83.3578 12.5952 84.0563 12.8717L84.9563 13.2374C86.1094 13.7249 86.9906 14.2077 87.6094 14.6858C88.2281 15.1639 88.6641 15.7077 88.9219 16.3171C89.1797 16.9264 89.3109 17.6905 89.3109 18.6139C89.3109 20.2499 88.7109 21.5389 87.5109 22.4717C86.3109 23.4046 84.5016 23.8686 82.0875 23.8686C80.9672 23.8686 79.8422 23.7561 78.7078 23.5264V23.5217Z" fill="#22A3FF"/>
<path d="M90.8203 6.49217H96.5859V23.4937H90.8203V6.49217Z" fill="#22A3FF"/>
<path d="M102.506 22.8047C101.086 22.1015 99.9981 21.0797 99.2341 19.739C98.47 18.4031 98.0903 16.8234 98.0903 15.0093C98.0903 13.1953 98.47 11.5969 99.2341 10.2656C99.9935 8.93904 101.086 7.91248 102.506 7.19998C103.926 6.48748 105.59 6.13123 107.503 6.13123C108.75 6.13123 109.856 6.23435 110.812 6.44529C111.768 6.65623 112.654 6.99841 113.465 7.46716V12.914C112.767 12.3937 111.975 12.0234 111.093 11.7937C110.208 11.5687 109.186 11.4515 108.018 11.4515C106.753 11.4515 105.759 11.7562 105.037 12.3609C104.315 12.9703 103.954 13.8515 103.954 15C103.954 16.1484 104.32 17.0297 105.047 17.639C105.778 18.2484 106.767 18.5484 108.014 18.5484C109.148 18.5484 110.17 18.4218 111.079 18.1734C111.989 17.9203 112.847 17.5359 113.658 17.0203V22.4437C112.017 23.3859 109.968 23.8547 107.503 23.8547C105.59 23.8547 103.922 23.5031 102.506 22.7953V22.8047Z" fill="#22A3FF"/>
<path d="M125.288 22.7437C123.886 21.9984 122.78 20.9578 121.969 19.6172C121.158 18.2812 120.755 16.7437 120.755 15.0093C120.755 13.275 121.158 11.7328 121.969 10.3875C122.78 9.04216 123.886 7.99685 125.288 7.24685C126.689 6.50154 128.26 6.13123 129.994 6.13123C131.728 6.13123 133.275 6.50154 134.677 7.24685C136.078 7.99216 137.185 9.04216 137.996 10.3875C138.806 11.7328 139.21 13.275 139.21 15.0093C139.21 16.7437 138.806 18.2812 137.996 19.6172C137.185 20.9531 136.078 21.9984 134.677 22.7437C133.275 23.489 131.714 23.864 129.994 23.864C128.274 23.864 126.689 23.4937 125.288 22.7437ZM132.403 17.5125C133.036 16.8984 133.35 16.0594 133.35 15.0047C133.35 13.95 133.036 13.1156 132.403 12.4969C131.771 11.8828 130.969 11.5734 129.994 11.5734C129.019 11.5734 128.194 11.8828 127.561 12.4969C126.928 13.1156 126.614 13.95 126.614 15.0047C126.614 16.0594 126.933 16.8937 127.575 17.5125C128.217 18.1265 129.024 18.4359 129.994 18.4359C130.964 18.4359 131.771 18.1265 132.403 17.5125Z" fill="#22A3FF"/>
<path d="M140.724 6.49217H145.805L150.863 14.3953V6.49217H156.385V23.4937H151.303L146.246 15.5625V23.4937H140.724V6.49217Z" fill="#22A3FF"/>
<path d="M167.953 11.3344H163.598V6.49217H178.073V11.3344H173.718V23.4984H167.953V11.3344Z" fill="#22A3FF"/>
<path d="M179.217 6.49217H184.983V12.1828H189.652V6.49217H195.417V23.4937H189.652V17.5359H184.983V23.4937H179.217V6.49217Z" fill="#22A3FF"/>
<path d="M197.409 6.49217H210.009V11.3344H203.175V12.8156H208.017V17.1703H203.175V18.6562H210.009V23.4984H197.409V6.49217Z" fill="#22A3FF"/>
<path d="M217.589 6.49217H226.735C228.436 6.49217 229.805 6.90936 230.846 7.74374C231.882 8.57811 232.402 9.75936 232.402 11.2828C232.402 11.9297 232.261 12.5484 231.975 13.1297C231.694 13.7156 231.282 14.1937 230.747 14.564C231.525 14.9344 232.083 15.4078 232.416 15.975C232.749 16.5422 232.913 17.2828 232.913 18.1875C232.913 19.2562 232.655 20.1937 232.135 21C231.614 21.8015 230.921 22.4203 230.044 22.8469C229.167 23.2781 228.197 23.489 227.124 23.489H217.589V6.49217ZM225.08 12.9375C225.582 12.9375 225.952 12.8344 226.186 12.6328C226.421 12.4312 226.538 12.0937 226.538 11.625C226.538 11.189 226.421 10.8703 226.186 10.6781C225.952 10.4859 225.582 10.3875 225.08 10.3875H223.182V12.9422H225.08V12.9375ZM225.394 19.6031C225.98 19.6031 226.402 19.4906 226.66 19.2609C226.917 19.0359 227.049 18.6703 227.049 18.1687C227.049 17.6672 226.917 17.2969 226.66 17.0625C226.402 16.8281 225.98 16.7109 225.394 16.7109H223.182V19.6078H225.394V19.6031Z" fill="#22A3FF"/>
<path d="M234.422 6.49217H240.188V18.6562H246.534V23.4984H234.422V6.49217Z" fill="#22A3FF"/>
<path d="M250.753 22.7437C249.351 21.9984 248.245 20.9578 247.434 19.6172C246.623 18.2812 246.22 16.7437 246.22 15.0093C246.22 13.275 246.623 11.7328 247.434 10.3875C248.245 9.04216 249.351 7.99685 250.753 7.24685C252.155 6.50154 253.725 6.13123 255.459 6.13123C257.194 6.13123 258.741 6.50154 260.142 7.24685C261.544 7.99216 262.65 9.04216 263.461 10.3875C264.272 11.7328 264.675 13.275 264.675 15.0093C264.675 16.7437 264.272 18.2812 263.461 19.6172C262.65 20.9531 261.544 21.9984 260.142 22.7437C258.741 23.489 257.18 23.864 255.459 23.864C253.739 23.864 252.155 23.4937 250.753 22.7437ZM257.869 17.5125C258.501 16.8984 258.816 16.0594 258.816 15.0047C258.816 13.95 258.501 13.1156 257.869 12.4969C257.236 11.8828 256.434 11.5734 255.459 11.5734C254.484 11.5734 253.659 11.8828 253.026 12.4969C252.394 13.1156 252.08 13.95 252.08 15.0047C252.08 16.0594 252.398 16.8937 253.041 17.5125C253.683 18.1265 254.489 18.4359 255.459 18.4359C256.43 18.4359 257.236 18.1265 257.869 17.5125Z" fill="#22A3FF"/>
<path d="M269.752 22.8047C268.331 22.1015 267.244 21.0797 266.48 19.739C265.716 18.4031 265.336 16.8234 265.336 15.0093C265.336 13.1953 265.716 11.5969 266.48 10.2656C267.239 8.93904 268.331 7.91248 269.752 7.19998C271.172 6.48748 272.836 6.13123 274.748 6.13123C275.995 6.13123 277.102 6.23435 278.058 6.44529C279.014 6.65623 279.9 6.99841 280.711 7.46716V12.914C280.012 12.3937 279.22 12.0234 278.339 11.7937C277.453 11.5687 276.431 11.4515 275.264 11.4515C273.998 11.4515 273.005 11.7562 272.283 12.3609C271.561 12.9703 271.2 13.8515 271.2 15C271.2 16.1484 271.566 17.0297 272.292 17.639C273.023 18.2484 274.012 18.5484 275.259 18.5484C276.394 18.5484 277.416 18.4218 278.325 18.1734C279.234 17.9203 280.092 17.5359 280.903 17.0203V22.4437C279.263 23.3859 277.214 23.8547 274.748 23.8547C272.836 23.8547 271.167 23.5031 269.752 22.7953V22.8047Z" fill="#22A3FF"/>
<path d="M282.413 6.49217H288.178V12.6469L292.945 6.49217H299.564L293.189 14.714L300 23.4937H293.236L288.178 16.8281V23.4937H282.413V6.49217Z" fill="#22A3FF"/>
</svg>
