<svg width="370" height="134" viewBox="0 0 370 134" fill="none" xmlns="http://www.w3.org/2000/svg">
<path d="M185.352 45.0487C182.78 41.6625 183.129 36.9487 186.132 34.5187L213.665 12.27C215.787 10.5562 218.979 11.1037 220.798 13.5L221.454 14.3625C224.42 18.2662 224.019 23.7 220.557 26.4975L195.451 46.7887C192.447 49.215 187.929 48.435 185.356 45.0487H185.352Z" fill="#026CAD"/>
<path d="M217.603 11.0212H217.486C214.081 11.0212 211.325 13.7812 211.325 17.1825V58.5075C210.74 58.44 210.151 58.3912 209.548 58.3912C201.695 58.3912 195.328 64.3425 195.328 71.6812C195.328 79.02 201.695 84.9712 209.548 84.9712C217.4 84.9712 223.768 79.02 223.768 71.6812V17.1862C223.768 13.7812 221.008 11.025 217.606 11.025L217.603 11.0212Z" fill="#22A3FF"/>
<path d="M196.434 34.56L170.458 13.5713C170.041 13.2075 169.651 12.9075 169.273 12.6338C168.208 11.64 166.786 11.0213 165.215 11.0213H164.63C161.383 11.0213 158.746 13.6538 158.746 16.905V58.5075C158.165 58.44 157.58 58.395 156.98 58.395C149.128 58.395 142.76 64.3463 142.76 71.685C142.76 79.0238 149.128 84.975 156.98 84.975C164.833 84.975 171.2 79.0238 171.2 71.685C171.2 71.6138 171.189 71.5425 171.189 71.4675V33.96L187.111 46.8263C190.119 49.2563 194.645 48.4838 197.218 45.0938C199.79 41.7075 199.438 36.99 196.426 34.5563L196.434 34.56Z" fill="#22A3FF"/>
<path d="M0.459961 109.61H7.60996L13.66 122.24L19.71 109.61H26.86V133.47H19.37V124.63L14.96 133.47H12.36L7.94996 124.63V133.47H0.459961V109.61Z" fill="#22A3FF"/>
<path d="M34.5599 132.52C32.8299 131.54 31.5499 130.21 30.7299 128.53C29.9099 126.85 29.4999 124.91 29.4999 122.73V109.62H37.6099V122.49C37.6099 123.83 37.8799 124.85 38.4299 125.53C38.9799 126.21 39.8399 126.55 41.0299 126.55C42.2199 126.55 43.0799 126.21 43.6099 125.53C44.1499 124.85 44.4099 123.83 44.4099 122.49V109.62H52.5499V122.73C52.5499 124.92 52.1399 126.85 51.3199 128.53C50.4999 130.22 49.2199 131.55 47.4899 132.52C45.7599 133.5 43.5999 133.99 41.0299 133.99C38.4599 133.99 36.2999 133.5 34.5699 132.52H34.5599Z" fill="#22A3FF"/>
<path d="M58.39 133.51C56.79 133.19 55.49 132.76 54.49 132.21V125.18C55.77 125.91 57.12 126.46 58.54 126.82C59.96 127.18 61.28 127.37 62.49 127.37C63.17 127.37 63.66 127.3 63.96 127.17C64.26 127.03 64.4 126.82 64.4 126.52C64.4 126.11 64.17 125.76 63.72 125.48C63.26 125.2 62.29 124.72 60.81 124.06C58.62 123.1 57.03 122.04 56.04 120.87C55.05 119.7 54.55 118.27 54.55 116.59C54.55 115.13 54.95 113.84 55.76 112.71C56.57 111.58 57.71 110.7 59.18 110.07C60.65 109.43 62.33 109.11 64.22 109.11C65.77 109.11 67.15 109.24 68.36 109.49C69.57 109.74 70.72 110.13 71.81 110.65V117.45C69.76 116.31 67.73 115.74 65.72 115.74C64.1 115.74 63.29 116.09 63.29 116.8C63.29 117.14 63.48 117.43 63.85 117.65C64.23 117.88 64.91 118.19 65.89 118.57L67.16 119.08C68.78 119.76 70.02 120.44 70.89 121.11C71.76 121.78 72.37 122.54 72.74 123.4C73.1 124.25 73.29 125.33 73.29 126.63C73.29 128.93 72.45 130.73 70.76 132.04C69.07 133.35 66.53 134 63.13 134C61.56 134 59.97 133.84 58.38 133.52L58.39 133.51Z" fill="#22A3FF"/>
<path d="M75.4299 109.61H83.5399V133.47H75.4299V109.61Z" fill="#22A3FF"/>
<path d="M91.86 132.5C89.86 131.51 88.33 130.08 87.26 128.2C86.19 126.32 85.65 124.11 85.65 121.56C85.65 119.01 86.19 116.77 87.26 114.9C88.33 113.04 89.86 111.6 91.86 110.6C93.85 109.6 96.2 109.1 98.89 109.1C100.65 109.1 102.2 109.25 103.54 109.54C104.88 109.83 106.13 110.31 107.27 110.97V118.62C106.29 117.89 105.18 117.37 103.94 117.05C102.7 116.73 101.26 116.57 99.61 116.57C97.83 116.57 96.43 117 95.42 117.85C94.4 118.7 93.9 119.94 93.9 121.55C93.9 123.16 94.41 124.4 95.44 125.25C96.47 126.1 97.86 126.53 99.61 126.53C101.21 126.53 102.64 126.35 103.92 126C105.2 125.65 106.4 125.11 107.54 124.38V131.99C105.24 133.31 102.35 133.97 98.89 133.97C96.2 133.97 93.86 133.47 91.86 132.48V132.5Z" fill="#22A3FF"/>
<path d="M123.89 132.42C121.92 131.37 120.36 129.91 119.22 128.03C118.08 126.15 117.51 124 117.51 121.56C117.51 119.12 118.08 116.96 119.22 115.07C120.36 113.18 121.92 111.71 123.89 110.66C125.86 109.61 128.07 109.09 130.51 109.09C132.95 109.09 135.12 109.61 137.09 110.66C139.06 111.71 140.62 113.18 141.76 115.07C142.9 116.96 143.47 119.12 143.47 121.56C143.47 124 142.9 126.15 141.76 128.03C140.62 129.91 139.06 131.37 137.09 132.42C135.12 133.47 132.92 133.99 130.51 133.99C128.1 133.99 125.86 133.47 123.89 132.42ZM133.89 125.08C134.78 124.22 135.22 123.04 135.22 121.56C135.22 120.08 134.78 118.91 133.89 118.04C133 117.18 131.87 116.74 130.5 116.74C129.13 116.74 127.97 117.17 127.08 118.04C126.19 118.91 125.75 120.08 125.75 121.56C125.75 123.04 126.2 124.21 127.1 125.08C128 125.95 129.14 126.38 130.5 126.38C131.86 126.38 133 125.95 133.89 125.08Z" fill="#22A3FF"/>
<path d="M145.59 109.61H152.74L159.85 120.7V109.61H167.61V133.47H160.46L153.35 122.34V133.47H145.59V109.61Z" fill="#22A3FF"/>
<path d="M183.88 116.41H177.76V109.62H198.11V116.41H191.99V133.48H183.88V116.41Z" fill="#22A3FF"/>
<path d="M199.71 109.61H207.82V117.6H214.39V109.61H222.5V133.47H214.39V125.11H207.82V133.47H199.71V109.61Z" fill="#22A3FF"/>
<path d="M225.3 109.61H243.02V116.4H233.41V118.48H240.22V124.59H233.41V126.67H243.02V133.46H225.3V109.6V109.61Z" fill="#22A3FF"/>
<path d="M253.67 109.61H266.53C268.92 109.61 270.85 110.2 272.31 111.37C273.77 112.54 274.5 114.2 274.5 116.34C274.5 117.25 274.3 118.12 273.9 118.93C273.5 119.75 272.93 120.42 272.17 120.95C273.26 121.47 274.05 122.13 274.51 122.93C274.98 123.73 275.21 124.76 275.21 126.04C275.21 127.54 274.84 128.86 274.12 129.98C273.39 131.11 272.41 131.97 271.18 132.57C269.95 133.17 268.58 133.47 267.08 133.47H253.67V109.61ZM264.2 118.66C264.91 118.66 265.43 118.52 265.76 118.23C266.09 117.94 266.26 117.47 266.26 116.81C266.26 116.2 266.09 115.75 265.76 115.48C265.43 115.21 264.91 115.07 264.2 115.07H261.53V118.65H264.2V118.66ZM264.65 128.02C265.47 128.02 266.06 127.86 266.43 127.54C266.8 127.22 266.98 126.71 266.98 126C266.98 125.29 266.8 124.78 266.43 124.45C266.07 124.12 265.47 123.96 264.65 123.96H261.54V128.02H264.65Z" fill="#22A3FF"/>
<path d="M277.33 109.61H285.44V126.68H294.37V133.47H277.34V109.61H277.33Z" fill="#22A3FF"/>
<path d="M300.3 132.42C298.33 131.37 296.77 129.91 295.63 128.03C294.49 126.15 293.92 124 293.92 121.56C293.92 119.12 294.49 116.96 295.63 115.07C296.77 113.18 298.33 111.71 300.3 110.66C302.27 109.61 304.48 109.09 306.92 109.09C309.36 109.09 311.53 109.61 313.5 110.66C315.47 111.71 317.03 113.18 318.17 115.07C319.31 116.96 319.88 119.12 319.88 121.56C319.88 124 319.31 126.15 318.17 128.03C317.03 129.91 315.47 131.37 313.5 132.42C311.53 133.47 309.33 133.99 306.92 133.99C304.51 133.99 302.27 133.47 300.3 132.42ZM310.3 125.08C311.19 124.22 311.63 123.04 311.63 121.56C311.63 120.08 311.19 118.91 310.3 118.04C309.41 117.18 308.28 116.74 306.91 116.74C305.54 116.74 304.38 117.17 303.49 118.04C302.6 118.91 302.16 120.08 302.16 121.56C302.16 123.04 302.61 124.21 303.51 125.08C304.41 125.95 305.55 126.38 306.91 126.38C308.27 126.38 309.41 125.95 310.3 125.08Z" fill="#22A3FF"/>
<path d="M327.01 132.5C325.01 131.51 323.48 130.08 322.41 128.2C321.34 126.32 320.8 124.11 320.8 121.56C320.8 119.01 321.34 116.77 322.41 114.9C323.48 113.04 325.01 111.6 327.01 110.6C329 109.6 331.35 109.1 334.04 109.1C335.8 109.1 337.35 109.25 338.69 109.54C340.03 109.83 341.28 110.31 342.42 110.97V118.62C341.44 117.89 340.33 117.37 339.09 117.05C337.85 116.73 336.41 116.57 334.76 116.57C332.98 116.57 331.58 117 330.57 117.85C329.55 118.7 329.05 119.94 329.05 121.55C329.05 123.16 329.56 124.4 330.59 125.25C331.62 126.1 333.01 126.53 334.76 126.53C336.36 126.53 337.79 126.35 339.07 126C340.35 125.65 341.55 125.11 342.69 124.38V131.99C340.39 133.31 337.5 133.97 334.04 133.97C331.35 133.97 329.01 133.47 327.01 132.48V132.5Z" fill="#22A3FF"/>
<path d="M344.81 109.61H352.92V118.25L359.62 109.61H368.92L359.96 121.15L369.54 133.48H360.03L352.92 124.13V133.48H344.81V109.62V109.61Z" fill="#22A3FF"/>
</svg>
