<svg width="36" height="36" viewBox="0 0 36 36" fill="none" xmlns="http://www.w3.org/2000/svg">
<path d="M23.0587 17.2324C22.9683 17.189 22.8764 17.1473 22.7833 17.1073C22.6212 14.1206 20.9893 12.4108 18.249 12.3933C18.2365 12.3932 18.2242 12.3932 18.2118 12.3932C16.5727 12.3932 15.2096 13.0928 14.3705 14.3659L15.8776 15.3997C16.5044 14.4488 17.4881 14.246 18.2125 14.246C18.2209 14.246 18.2293 14.246 18.2376 14.2461C19.1398 14.2519 19.8207 14.5142 20.2614 15.0258C20.582 15.3983 20.7965 15.9129 20.9027 16.5625C20.1028 16.4265 19.2376 16.3847 18.3127 16.4378C15.7074 16.5878 14.0325 18.1073 14.145 20.2187C14.202 21.2897 14.7356 22.2111 15.6473 22.813C16.4181 23.3218 17.4108 23.5706 18.4426 23.5143C19.8052 23.4396 20.8741 22.9197 21.6198 21.9691C22.1861 21.2473 22.5443 20.3118 22.7025 19.133C23.3519 19.5249 23.8331 20.0406 24.0989 20.6606C24.5508 21.7144 24.5772 23.4461 23.1642 24.858C21.9262 26.0948 20.438 26.6298 18.189 26.6463C15.6942 26.6279 13.8074 25.8278 12.5807 24.2683C11.432 22.8081 10.8383 20.6989 10.8162 17.9993C10.8383 15.2997 11.432 13.1904 12.5807 11.7302C13.8074 10.1707 15.6942 9.37067 18.1889 9.35213C20.7018 9.37082 22.6215 10.1747 23.8951 11.7417C24.5197 12.5101 24.9905 13.4765 25.3009 14.6032L27.067 14.132C26.6908 12.7451 26.0987 11.55 25.293 10.5589C23.6602 8.55 21.2721 7.52061 18.1951 7.49927H18.1828C15.1121 7.52054 12.7507 8.55384 11.1643 10.5704C9.75271 12.365 9.02454 14.8619 9.00008 17.9919L9 17.9993L9.00008 18.0067C9.02454 21.1366 9.75271 23.6336 11.1643 25.4281C12.7507 27.4447 15.1121 28.4781 18.1828 28.4993H18.1951C20.9252 28.4803 22.8495 27.7656 24.4348 26.1817C26.5089 24.1096 26.4464 21.5123 25.7628 19.9178C25.2724 18.7744 24.3373 17.8457 23.0587 17.2324ZM18.3451 21.6641C17.2032 21.7284 16.0169 21.2159 15.9584 20.1181C15.915 19.3041 16.5377 18.3959 18.4151 18.2877C18.6301 18.2753 18.8411 18.2692 19.0484 18.2692C19.7303 18.2692 20.3683 18.3355 20.9483 18.4623C20.732 21.164 19.463 21.6027 18.3451 21.6641Z" fill="#767676"/>
</svg>
