<svg width="36" height="36" viewBox="0 0 36 36" fill="none" xmlns="http://www.w3.org/2000/svg">
<g clip-path="url(#clip0_4016_13816)">
<path d="M22.9932 11.7097C24.4162 11.7097 25.5809 12.8736 25.5811 14.2966V20.5417C25.5811 21.96 24.4212 23.1248 22.998 23.1248H19.4092L18.7979 24.1804L18.1963 25.2224C18.0838 25.4131 17.8098 25.4131 17.7021 25.2224L17.1006 24.1804L16.4893 23.1248H12.9385C11.5203 23.1247 10.3564 21.9648 10.3564 20.5417V14.2917C10.3566 12.8737 11.5155 11.7098 12.9385 11.7097H22.9932ZM21.7314 16.2927C21.0125 16.2927 20.4307 16.8941 20.4307 17.6326C20.4308 18.3709 21.0126 18.9724 21.7314 18.9724C22.0297 18.9724 22.3034 18.8691 22.5186 18.698V19.0701C22.5186 19.0701 22.4403 19.4373 21.8926 19.4373V20.1267C21.8953 20.127 22.4857 20.1937 23.0127 19.6667C23.0178 19.6613 23.2573 19.4039 23.3105 19.0652V16.3464H22.5186V16.5662C22.2985 16.395 22.0248 16.2928 21.7314 16.2927ZM12.625 19.0017H13.4072V18.7527C13.6273 18.9483 13.9067 19.0701 14.2148 19.0701C14.914 19.0699 15.4814 18.449 15.4814 17.6814C15.4814 16.9137 14.919 16.288 14.2148 16.2878C13.9116 16.2878 13.6273 16.4047 13.4072 16.6052V15.4558H12.625V19.0017ZM18.6699 16.2878C17.8923 16.2878 17.2617 16.9087 17.2617 17.6765C17.2618 18.4443 17.8924 19.0652 18.6699 19.0652C19.4475 19.0652 20.078 18.4443 20.0781 17.6765C20.0781 16.9087 19.4524 16.2879 18.6699 16.2878ZM15.5693 15.3875V16.0964C15.5693 16.0964 15.9315 16.1457 16 16.4978V19.0017H16.8066V16.4783C16.7584 16.1311 16.5536 15.8693 16.5479 15.8621C16.0881 15.3192 15.5693 15.3875 15.5693 15.3875ZM14.0586 16.9822C14.4496 16.9824 14.7627 17.2903 14.7627 17.6765C14.7626 18.0626 14.4496 18.3706 14.0586 18.3708C13.7701 18.3708 13.5197 18.1994 13.4121 17.95C13.378 17.867 13.3535 17.7741 13.3535 17.6765C13.3535 17.5787 13.373 17.4852 13.4121 17.4021C13.5197 17.1527 13.7701 16.9822 14.0586 16.9822ZM18.6699 17.0115C19.0416 17.0115 19.3447 17.3097 19.3447 17.6765C19.3446 18.0432 19.0464 18.3415 18.6699 18.3416C18.2983 18.3416 17.9952 18.0432 17.9951 17.6765C17.9951 17.3097 18.2982 17.0115 18.6699 17.0115ZM21.8779 16.9431C22.1566 16.9431 22.4011 17.0991 22.5186 17.324C22.5675 17.4169 22.5918 17.5201 22.5918 17.6277C22.5917 17.7351 22.5625 17.8425 22.5186 17.9304C22.4012 18.1603 22.1567 18.3123 21.8779 18.3123C21.4819 18.3123 21.1642 18.0041 21.1641 17.6277C21.1641 17.2511 21.4867 16.9431 21.8779 16.9431Z" fill="#767676"/>
<path fill-rule="evenodd" clip-rule="evenodd" d="M25.3221 8.55832H10.6779C9.50781 8.55832 8.55929 9.50684 8.55929 10.6769V25.3211C8.55929 26.4912 9.50781 27.4397 10.6779 27.4397H25.3221C26.4922 27.4397 27.4407 26.4912 27.4407 25.3212V10.6769C27.4407 9.50684 26.4922 8.55832 25.3221 8.55832ZM10.6779 7.49902H25.3221C27.0772 7.49902 28.5 8.92181 28.5 10.6769V25.3212C28.5 27.0762 27.0772 28.499 25.3221 28.499H10.6779C8.92278 28.499 7.5 27.0762 7.5 25.3211V10.6769C7.5 8.9218 8.92278 7.49902 10.6779 7.49902Z" fill="#767676"/>
</g>
<defs>
<clipPath id="clip0_4016_13816">
<rect width="21" height="21" fill="white" transform="translate(7.5 7.49902)"/>
</clipPath>
</defs>
</svg>
