<svg width="36" height="36" viewBox="0 0 36 36" fill="none" xmlns="http://www.w3.org/2000/svg">
<path d="M12.1149 10.501C16.3206 10.501 19.7296 14.0269 19.7296 18.3761C19.7296 22.7253 16.3203 26.251 12.1149 26.251C7.90957 26.251 4.5 22.7253 4.5 18.3761C4.5 14.0269 7.90931 10.501 12.1149 10.501ZM24.2755 10.9623C26.3783 10.9623 28.0829 14.2812 28.0829 18.3761H28.0832C28.0832 22.4699 26.3785 25.7899 24.2757 25.7899C22.1729 25.7899 20.4682 22.4699 20.4682 18.3761C20.4682 14.2823 22.1726 10.9623 24.2755 10.9623ZM30.1609 11.7345C30.9003 11.7345 31.5 14.708 31.5 18.3761C31.5 22.0432 30.9006 25.0177 30.1609 25.0177C29.4212 25.0177 28.8221 22.044 28.8221 18.3761C28.8221 14.7083 29.4215 11.7345 30.1609 11.7345Z" fill="#959595"/>
</svg>
