<svg width="24" height="24" viewBox="0 0 24 24" fill="none" xmlns="http://www.w3.org/2000/svg">
<path fill-rule="evenodd" clip-rule="evenodd" d="M12 0C18.6279 0 24 5.37212 24 12C24 18.6279 18.6279 24 12 24C5.37212 24 0 18.6279 0 12C0 5.37212 5.37212 0 12 0Z" fill="#17181D"/>
<path d="M6.50423 11.9996L6.51303 15.1647L9.25353 16.7473V18.6003L4.90918 16.0999V11.0741L6.50423 11.9996ZM6.50423 8.83454V10.6789L4.9082 9.75246V7.90808L6.50423 6.98157L8.10804 7.90808L6.50423 8.83454ZM10.398 7.90808L11.994 6.98157L13.5979 7.90808L11.994 8.83454L10.398 7.90808Z" fill="#F1B90C"/>
<path d="M7.66016 14.5088V12.6558L9.25619 13.5823V15.4267L7.66016 14.5088ZM10.4007 17.411L11.9967 18.3376L13.6005 17.411V19.2554L11.9967 20.1819L10.4007 19.2554V17.411ZM15.8896 7.9082L17.4856 6.98169L19.0894 7.9082V9.75259L17.4856 10.679V8.83466L15.8896 7.9082ZM17.4856 15.1648L17.4944 11.9998L19.0904 11.0732V16.099L14.746 18.5994V16.7464L17.4856 15.1648Z" fill="#F1B90C"/>
<path d="M16.3402 14.5097L14.7441 15.4276V13.5832L16.3402 12.6567V14.5097Z" fill="#F1B90C"/>
<path d="M16.3411 9.49136L16.3499 11.3444L13.6015 12.9269V16.0997L12.0055 17.0175L10.4095 16.0997V12.9269L7.66115 11.3444V9.49136L9.26397 8.5649L11.9957 10.1551L14.7441 8.5649L16.3479 9.49136H16.3411ZM7.66016 6.32728L11.9967 3.81824L16.3411 6.32728L14.7451 7.25378L11.9967 5.66357L9.25619 7.25378L7.66016 6.32728Z" fill="#F1B90C"/>
</svg>
